<?xml version="1.0" standalone="no"?>
<!DOCTYPE svg PUBLIC "-//W3C//DTD SVG 20010904//EN"
 "http://www.w3.org/TR/2001/REC-SVG-20010904/DTD/svg10.dtd">
<svg version="1.0" xmlns="http://www.w3.org/2000/svg"
 width="819.200000pt" height="819.200000pt" viewBox="0 0 819.200000 819.200000"
 preserveAspectRatio="xMidYMid meet">
<metadata>
Created by potrace 1.13, written by Peter Selinger 2001-2015
</metadata>
<g transform="translate(0.000000,819.200000) scale(0.080000,-0.080000)"
fill="#ff3537" stroke="none">
<path d="M0 5120 l0 -5120 5120 0 5120 0 0 5120 0 5120 -5120 0 -5120 0 0
-5120z m2096 1549 c60 -17 123 -35 139 -39 164 -42 1101 -316 1138 -332 46
-21 103 -83 121 -132 3 -11 6 -464 6 -1008 0 -985 0 -990 -21 -1039 -19 -44
-40 -67 -105 -119 -10 -8 -23 -15 -29 -15 -9 0 -196 -61 -825 -268 -121 -40
-218 -76 -214 -79 3 -4 -3 -4 -15 -1 -13 3 -21 1 -21 -6 0 -7 -4 -10 -8 -7 -5
3 -71 -16 -148 -41 -135 -44 -141 -45 -202 -35 -80 13 -133 47 -169 109 l-28
48 3 1405 4 1405 21 45 c11 25 21 51 20 57 0 7 3 11 7 8 4 -2 18 5 31 17 37
32 100 58 145 58 22 0 90 -14 150 -31z m6307 -4 c20 -10 37 -23 37 -27 0 -5 6
-8 13 -6 7 2 12 1 12 -2 0 -3 10 -18 21 -35 48 -68 47 -22 39 -1483 -5 -1152
-9 -1384 -21 -1422 -17 -54 -83 -128 -124 -139 -78 -22 -113 -24 -158 -12 -83
23 -175 50 -264 76 -47 14 -95 26 -105 28 -10 2 -25 7 -33 10 -8 4 -49 16 -90
27 -41 11 -151 42 -245 70 -93 27 -179 51 -190 53 -11 2 -27 7 -35 10 -8 3
-98 29 -200 59 -213 61 -261 87 -299 161 l-24 48 2 985 c1 541 6 997 11 1012
18 59 38 93 68 116 17 12 30 25 27 28 -3 2 1 5 8 6 6 0 208 66 446 146 239 81
441 146 448 146 7 0 13 5 13 11 0 5 4 8 8 5 12 -7 203 60 195 68 -4 4 -1 4 8
1 8 -3 71 14 139 38 142 50 223 56 293 22z m-6951 -1482 c-2 -595 -8 -1080
-12 -1078 -4 3 -24 41 -45 84 -21 44 -43 77 -48 74 -6 -3 -7 -1 -3 5 4 7 -67
163 -159 350 -91 185 -187 380 -213 434 -26 53 -51 94 -56 91 -5 -3 -6 0 -4 8
3 8 -12 48 -33 89 -20 41 -86 174 -146 295 l-108 220 -1 82 c0 45 3 81 6 80 4
-1 20 13 36 32 29 35 99 71 214 111 36 12 79 28 95 35 38 17 345 132 405 152
25 8 49 19 55 24 5 5 12 6 16 2 3 -5 4 -495 1 -1090z m7401 842 c25 -49 82
-166 127 -260 46 -93 179 -365 296 -603 118 -239 214 -437 214 -441 0 -5 11
-25 25 -45 13 -20 22 -36 20 -36 -3 0 8 -26 24 -57 66 -131 77 -192 45 -259
-31 -66 -80 -94 -291 -172 -218 -81 -316 -118 -441 -167 -45 -18 -84 -29 -87
-26 -7 13 8 2172 16 2164 4 -4 28 -48 52 -98z m-3093 -172 l723 -6 -4 -744 -4
-743 -1359 0 -1359 0 6 748 c3 411 6 748 6 750 2 5 1286 2 1991 -5z"/>
</g>
</svg>
